<svg width="37" height="37" viewBox="0 0 37 37" fill="none" xmlns="http://www.w3.org/2000/svg">
<path fill-rule="evenodd" clip-rule="evenodd" d="M36.8 18.4C36.8 23.28 34.8614 27.9601 31.4108 31.4108C27.9601 34.8614 23.28 36.8 18.4 36.8C13.52 36.8 8.8399 34.8614 5.38924 31.4108C1.93857 27.9601 0 23.28 0 18.4C0 13.52 1.93857 8.8399 5.38924 5.38924C8.8399 1.93857 13.52 0 18.4 0C23.28 0 27.9601 1.93857 31.4108 5.38924C34.8614 8.8399 36.8 13.52 36.8 18.4ZM11.5 11.5C11.5 11.5 11.7423 11.5 12.1737 11.5C12.1737 11.5 13.19 11.5 13.8 11.5C14.41 11.5 15 11.5 15.4263 11.5C16 11.5 16.1 11.5 16.1 11.5V25.3H15.4263C15.4263 25.3 14.41 25.3 13.8 25.3C13.19 25.3 12.1737 25.3 12.1737 25.3C12.2011 25.3261 11.5 25.3 11.5 25.3V11.5ZM23 11.5C22.39 11.5 21.3737 11.5 21.3737 11.5H20.7V25.3H21.3737C21.3737 25.3 22.39 25.3 23 25.3C23.61 25.3 24.6263 25.3 24.6263 25.3H25.3V11.5C25 11.5 24.6263 11.5 24.6263 11.5C24.6263 11.5 23.61 11.5 23 11.5Z" fill="white"/>
</svg>
