<svg width="38" height="38" viewBox="0 0 38 38" fill="none" xmlns="http://www.w3.org/2000/svg">
<path fill-rule="evenodd" clip-rule="evenodd" d="M37.4 19C37.4 23.88 35.4614 28.5601 32.0107 32.0108C28.5601 35.4614 23.88 37.4 19 37.4C14.12 37.4 9.43988 35.4614 5.98921 32.0108C2.53854 28.5601 0.599976 23.88 0.599976 19C0.599976 14.12 2.53854 9.43991 5.98921 5.98924C9.43988 2.53857 14.12 0.600006 19 0.600006C23.88 0.600006 28.5601 2.53857 32.0107 5.98924C35.4614 9.43991 37.4 14.12 37.4 19V19ZM12.1 14.4C12.1 13.79 12.3423 13.205 12.7736 12.7737C13.205 12.3423 13.79 12.1 14.4 12.1C15.01 12.1 15.595 12.3423 16.0263 12.7737C16.4577 13.205 16.7 13.79 16.7 14.4V23.6C16.7 24.21 16.4577 24.795 16.0263 25.2264C15.595 25.6577 15.01 25.9 14.4 25.9C13.79 25.9 13.205 25.6577 12.7736 25.2264C12.3423 24.795 12.1 24.21 12.1 23.6V14.4ZM23.6 12.1C22.99 12.1 22.405 12.3423 21.9736 12.7737C21.5423 13.205 21.3 13.79 21.3 14.4V23.6C21.3 24.21 21.5423 24.795 21.9736 25.2264C22.405 25.6577 22.99 25.9 23.6 25.9C24.21 25.9 24.795 25.6577 25.2263 25.2264C25.6577 24.795 25.9 24.21 25.9 23.6V14.4C25.9 13.79 25.6577 13.205 25.2263 12.7737C24.795 12.3423 24.21 12.1 23.6 12.1Z" fill="white"/>
</svg>
