<svg width="38" height="38" viewBox="0 0 38 38" fill="none" xmlns="http://www.w3.org/2000/svg">
<path fill-rule="evenodd" clip-rule="evenodd" d="M19 37.4C23.88 37.4 28.5601 35.4614 32.0107 32.0108C35.4614 28.5601 37.4 23.88 37.4 19C37.4 14.12 35.4614 9.43991 32.0107 5.98924C28.5601 2.53857 23.88 0.600006 19 0.600006C14.12 0.600006 9.43988 2.53857 5.98921 5.98924C2.53854 9.43991 0.599976 14.12 0.599976 19C0.599976 23.88 2.53854 28.5601 5.98921 32.0108C9.43988 35.4614 14.12 37.4 19 37.4ZM17.9765 12.4864C17.6301 12.2553 17.2275 12.1226 16.8116 12.1024C16.3957 12.0822 15.9821 12.1753 15.6149 12.3717C15.2478 12.5681 14.9408 12.8606 14.7269 13.2178C14.5129 13.575 14.3999 13.9836 14.4 14.4V23.6C14.3999 24.0164 14.5129 24.425 14.7269 24.7822C14.9408 25.1394 15.2478 25.4319 15.6149 25.6283C15.9821 25.8248 16.3957 25.9178 16.8116 25.8976C17.2275 25.8774 17.6301 25.7447 17.9765 25.5136L24.8765 20.9136C25.1915 20.7036 25.4498 20.419 25.6284 20.0852C25.807 19.7514 25.9005 19.3786 25.9005 19C25.9005 18.6214 25.807 18.2486 25.6284 17.9148C25.4498 17.581 25.1915 17.2964 24.8765 17.0864L17.9765 12.4864Z" fill="white"/>
</svg>
