<svg width="15" height="18" viewBox="0 0 15 18" fill="none" xmlns="http://www.w3.org/2000/svg">
<path d="M13.4986 17.9985C14.327 17.9985 14.9985 17.327 14.9985 16.4985V1.5015C14.9985 0.67308 14.3269 0.00150191 13.4985 0.00150191C12.6701 0.00150191 11.9985 0.67308 11.9985 1.50141V8.99995V16.4984C11.9985 17.3269 12.6702 17.9985 13.4986 17.9985ZM2.46122 17.6528L11.4623 10.1541C11.8197 9.85242 11.9985 9.42614 11.9985 8.99995C11.9985 8.57367 11.8197 8.14763 11.4623 7.84585L2.46122 0.347111C1.49433 -0.455436 0 0.218205 0 1.50122V16.4987C0 17.7817 1.49433 18.4554 2.46122 17.6528Z" fill="#B3B3B3"/>
</svg>
