<svg width="15" height="18" viewBox="0 0 15 18" fill="none" xmlns="http://www.w3.org/2000/svg">
<path d="M1.50136 0.00149918C0.672984 0.00149918 0.0014534 0.673029 0.0014534 1.5015V16.4985C0.0014534 17.3269 0.673078 17.9985 1.50155 17.9985C2.32992 17.9985 3.00145 17.3269 3.00145 16.4986V9.00005V1.50159C3.00145 0.673122 2.32983 0.00149918 1.50136 0.00149918ZM12.5388 0.347202L3.5377 7.84594C3.18028 8.14758 3.00145 8.57386 3.00145 9.00005C3.00145 9.42633 3.18028 9.85237 3.5377 10.1542L12.5388 17.6529C13.5057 18.4554 15 17.7818 15 16.4988V1.50131C15 0.218296 13.5057 -0.455439 12.5388 0.347202Z" fill="#B3B3B3"/>
</svg>
