<svg width="22" height="22" viewBox="0 0 22 22" fill="none" xmlns="http://www.w3.org/2000/svg">
<g clip-path="url(#clip0)">
<path d="M14.9779 0.218622L14.8672 2.70393C14.8637 2.8435 15.0246 2.92943 15.136 2.8435L16.106 2.10925L16.9297 2.75C17.0369 2.8215 17.1806 2.75 17.1875 2.62075L17.0947 0.0928093L18.3157 -3.21888e-06C18.9495 -0.0433157 19.4899 0.461997 19.4899 1.09931V20.9007C19.4899 21.5311 18.9633 22.0323 18.3335 22L3.57361 21.3414C3.00092 21.3166 2.53892 20.8546 2.52105 20.2778L1.83355 2.12712C1.7978 1.51868 2.2598 0.995497 2.86823 0.963184L14.9675 0.200747L14.9779 0.218622ZM12.1639 8.52568C12.1639 8.95537 15.061 8.74431 15.4543 8.45075C15.4543 5.51787 13.8785 3.96756 11 3.96756C8.11386 3.96756 6.50992 5.54675 6.50992 7.90281C6.50992 11.9811 12.0099 12.0526 12.0099 14.2801C12.0099 14.9249 11.7164 15.29 11.0467 15.29C10.166 15.29 9.80786 14.8424 9.85461 13.31C9.85461 12.9807 6.50992 12.8693 6.39923 13.31C6.15242 17.0053 8.44386 18.0757 11.0722 18.0757C13.6324 18.0757 15.6303 16.7117 15.6303 14.2443C15.6303 9.8725 10.0375 9.99006 10.0375 7.82787C10.0375 6.93962 10.7002 6.82137 11.0722 6.82137C11.4874 6.82137 12.2182 6.886 12.1646 8.53325L12.1639 8.52568Z" fill="white"/>
</g>
<defs>
<clipPath id="clip0">
<rect width="22" height="22" fill="white"/>
</clipPath>
</defs>
</svg>
