<svg width="18" height="16" viewBox="0 0 18 16" fill="none" xmlns="http://www.w3.org/2000/svg">
<path fill-rule="evenodd" clip-rule="evenodd" d="M8.383 1.07602C8.56569 1.15176 8.72181 1.27997 8.83163 1.44444C8.94146 1.60891 9.00005 1.80225 9 2.00002V14C8.99996 14.1978 8.94129 14.3911 8.8314 14.5555C8.72152 14.7199 8.56535 14.848 8.38265 14.9237C8.19995 14.9994 7.99892 15.0192 7.80497 14.9806C7.61102 14.942 7.43285 14.8468 7.293 14.707L3.586 11H1C0.734784 11 0.48043 10.8947 0.292893 10.7071C0.105357 10.5196 0 10.2652 0 10V6.00002C0 5.7348 0.105357 5.48045 0.292893 5.29291C0.48043 5.10537 0.734784 5.00002 1 5.00002H3.586L7.293 1.29302C7.43285 1.15308 7.61105 1.05778 7.80508 1.01915C7.9991 0.980521 8.20023 1.00031 8.383 1.07602ZM13.657 0.929017C13.8445 0.741546 14.0988 0.63623 14.364 0.63623C14.6292 0.63623 14.8835 0.741546 15.071 0.929017C16.0008 1.85667 16.7382 2.95887 17.2409 4.17233C17.7435 5.38578 18.0015 6.68658 18 8.00002C18.0015 9.31346 17.7435 10.6143 17.2409 11.8277C16.7382 13.0412 16.0008 14.1434 15.071 15.071C14.8824 15.2532 14.6298 15.354 14.3676 15.3517C14.1054 15.3494 13.8546 15.2442 13.6692 15.0588C13.4838 14.8734 13.3786 14.6226 13.3763 14.3604C13.374 14.0982 13.4748 13.8456 13.657 13.657C14.4011 12.9151 14.9912 12.0333 15.3933 11.0625C15.7955 10.0916 16.0016 9.05084 16 8.00002C16 5.79002 15.106 3.79202 13.657 2.34302C13.4695 2.15549 13.3642 1.90118 13.3642 1.63602C13.3642 1.37085 13.4695 1.11654 13.657 0.929017ZM10.828 3.75702C10.9209 3.66404 11.0312 3.59028 11.1526 3.53996C11.274 3.48963 11.4041 3.46373 11.5355 3.46373C11.6669 3.46373 11.797 3.48963 11.9184 3.53996C12.0398 3.59028 12.1501 3.66404 12.243 3.75702C12.8009 4.31368 13.2433 4.97508 13.5448 5.70323C13.8463 6.43137 14.001 7.21191 14 8.00002C14.001 8.78811 13.8463 9.56864 13.5447 10.2968C13.2432 11.0249 12.8008 11.6863 12.243 12.243C12.0554 12.4307 11.8009 12.5361 11.5355 12.5361C11.2701 12.5361 11.0156 12.4307 10.828 12.243C10.6404 12.0554 10.5349 11.8009 10.5349 11.5355C10.5349 11.2702 10.6404 11.0157 10.828 10.828C11.2002 10.4572 11.4953 10.0164 11.6965 9.53108C11.8976 9.04573 12.0008 8.52539 12 8.00002C12.0008 7.47463 11.8977 6.95428 11.6965 6.46893C11.4954 5.98357 11.2002 5.54281 10.828 5.17202C10.735 5.07914 10.6613 4.96885 10.6109 4.84746C10.5606 4.72606 10.5347 4.59593 10.5347 4.46452C10.5347 4.3331 10.5606 4.20297 10.6109 4.08158C10.6613 3.96018 10.735 3.84989 10.828 3.75702Z" fill="white"/>
</svg>
